<?xml version="1.0" standalone="no"?>
<!DOCTYPE svg PUBLIC "-//W3C//DTD SVG 20010904//EN"
 "http://www.w3.org/TR/2001/REC-SVG-20010904/DTD/svg10.dtd">
<svg version="1.0" xmlns="http://www.w3.org/2000/svg"
 width="512.000000pt" height="512.000000pt" viewBox="0 0 512.000000 512.000000"
 preserveAspectRatio="xMidYMid meet">
<metadata>
Created by potrace 1.11, written by Peter Selinger 2001-2013
</metadata>
<g transform="translate(0.000000,512.000000) scale(0.100000,-0.100000)"
fill="#000000" stroke="none">
<path d="M2410 4943 c-45 -14 -63 -33 -93 -92 -18 -36 -46 -91 -62 -121 -16
-30 -29 -57 -30 -60 0 -3 -50 -102 -110 -220 -61 -118 -112 -222 -114 -230 -2
-8 -6 -17 -10 -20 -3 -3 -53 -99 -111 -215 -68 -136 -104 -221 -104 -241 1
-46 29 -75 106 -111 37 -18 68 -36 68 -41 0 -4 -19 -15 -42 -23 l-42 -15 -349
464 c-192 256 -351 470 -353 476 -8 21 -84 47 -120 41 -24 -3 -93 -50 -227
-151 -105 -81 -226 -172 -268 -203 -89 -66 -110 -91 -116 -138 -6 -44 10 -85
61 -151 82 -105 282 -372 337 -447 16 -22 34 -46 40 -53 6 -8 61 -80 121 -160
130 -175 148 -199 169 -226 16 -19 15 -23 -20 -76 -57 -88 -58 -90 -110 -195
-72 -148 -129 -320 -146 -441 -3 -21 -7 -48 -10 -59 -10 -51 -18 -160 -18
-260 1 -105 11 -253 19 -266 2 -4 6 -24 9 -45 7 -49 9 -59 24 -113 7 -23 10
-50 7 -58 -3 -8 -2 -12 2 -9 4 3 14 -16 22 -42 7 -26 19 -58 26 -71 7 -14 11
-28 8 -33 -3 -4 0 -8 7 -8 7 0 10 -3 6 -6 -8 -9 111 -240 141 -272 7 -8 11
-21 8 -28 -3 -8 -1 -13 3 -11 5 1 10 -2 11 -8 2 -5 11 -16 21 -23 11 -7 19
-22 19 -33 0 -10 5 -18 11 -16 6 1 16 -7 22 -18 7 -11 25 -32 41 -47 16 -16
22 -28 15 -28 -8 0 -3 -6 11 -13 14 -8 24 -19 23 -25 -2 -7 1 -11 5 -9 5 1 37
-25 71 -58 89 -85 111 -105 117 -105 4 0 82 -58 121 -90 7 -6 17 -10 24 -10 6
0 9 -7 6 -15 -4 -8 -1 -17 5 -21 7 -4 8 -3 4 4 -5 8 1 12 15 12 12 0 19 -3 16
-7 -9 -8 201 -113 226 -113 10 0 15 -4 12 -10 -3 -6 5 -10 19 -10 14 0 28 -4
31 -10 3 -5 16 -10 29 -10 12 0 26 -3 30 -7 3 -4 16 -8 28 -10 12 -2 25 -7 28
-12 3 -4 12 -7 20 -6 8 1 26 -2 40 -8 14 -6 32 -11 40 -12 8 -1 33 -4 55 -9
149 -27 283 -33 470 -20 50 4 98 7 108 7 9 1 17 5 17 9 0 4 6 5 13 2 8 -3 25
0 39 5 18 7 29 6 38 -2 9 -8 11 -9 7 -1 -10 18 63 29 75 12 8 -10 9 -9 5 4 -4
12 2 18 23 23 16 4 35 3 41 -1 7 -4 9 -3 5 4 -4 6 7 13 26 18 18 3 74 24 123
46 50 22 96 42 104 46 10 4 12 1 6 -9 -5 -8 -5 -11 1 -6 5 5 9 14 9 19 0 6 14
16 30 21 17 6 32 13 35 16 3 4 30 22 60 41 30 18 74 49 98 67 23 19 42 32 42
30 0 -3 16 10 37 29 20 18 41 30 47 27 6 -3 8 -3 4 2 -10 10 53 65 66 58 5 -3
6 -1 2 5 -9 15 51 75 66 66 7 -4 8 -2 4 5 -8 13 28 64 38 54 3 -4 -2 -16 -11
-27 -18 -21 -18 -21 4 -3 12 11 19 25 17 32 -5 12 5 27 41 69 6 6 21 28 35 49
14 20 30 35 37 33 7 -3 10 1 7 8 -7 17 49 109 60 99 4 -4 4 1 0 11 -6 15 -4
17 6 11 8 -5 11 -4 6 3 -7 12 13 62 26 62 4 0 7 3 5 8 -4 15 36 91 46 85 6 -3
7 -1 3 6 -8 13 14 81 27 81 4 0 5 5 2 10 -4 6 1 22 10 36 9 13 13 29 10 34 -3
6 -3 16 2 22 4 7 8 18 9 23 1 6 7 28 13 50 11 41 23 110 24 133 0 6 3 12 6 12
21 0 18 450 -4 550 -3 14 -8 39 -10 55 -22 127 -83 303 -151 438 -41 82 -112
201 -141 237 -6 8 -32 40 -56 70 l-44 54 210 418 c209 413 210 417 199 455 -6
21 -22 44 -34 52 -24 15 -754 383 -1425 720 -210 105 -385 191 -390 190 -4 0
-15 -3 -23 -6z"/>
<path d="M1275 800 c3 -5 8 -10 11 -10 2 0 4 5 4 10 0 6 -5 10 -11 10 -5 0 -7
-4 -4 -10z"/>
<path d="M3589 563 c-13 -16 -12 -17 4 -4 16 13 21 21 13 21 -2 0 -10 -8 -17
-17z"/>
<path d="M3450 460 c0 -5 5 -10 11 -10 5 0 7 5 4 10 -3 6 -8 10 -11 10 -2 0
-4 -4 -4 -10z"/>
<path d="M3387 439 c7 -7 15 -10 18 -7 3 3 -2 9 -12 12 -14 6 -15 5 -6 -5z"/>
<path d="M3236 358 c3 -5 10 -6 15 -3 13 9 11 12 -6 12 -8 0 -12 -4 -9 -9z"/>
<path d="M1930 339 c0 -5 5 -7 10 -4 6 3 10 8 10 11 0 2 -4 4 -10 4 -5 0 -10
-5 -10 -11z"/>
<path d="M2873 255 c0 -8 4 -12 9 -9 5 3 6 10 3 15 -9 13 -12 11 -12 -6z"/>
<path d="M2815 249 c-4 -6 -5 -12 -2 -15 2 -3 7 2 10 11 7 17 1 20 -8 4z"/>
<path d="M2560 240 c-9 -6 -10 -10 -3 -10 6 0 15 5 18 10 8 12 4 12 -15 0z"/>
<path d="M2470 220 c0 -5 5 -10 11 -10 5 0 7 5 4 10 -3 6 -8 10 -11 10 -2 0
-4 -4 -4 -10z"/>
<path d="M2655 220 c3 -5 8 -10 11 -10 2 0 4 5 4 10 0 6 -5 10 -11 10 -5 0 -7
-4 -4 -10z"/>
</g>
</svg>
